<svg xmlns="http://www.w3.org/2000/svg" version="1.1" xmlns:xlink="http://www.w3.org/1999/xlink" xmlns:svgjs="http://svgjs.dev/svgjs" width="1440" height="700" preserveAspectRatio="none" viewBox="0 0 1440 700">
    <g mask="url(&quot;#SvgjsMask1147&quot;)" fill="none">
        <rect width="1440" height="700" x="0" y="0" fill="rgba(2, 6, 23, 1)"></rect>
        <path d="M0,454.776C93.47,466.593,187.886,463.113,275.717,429.024C377.27,389.609,493.983,345.346,538.323,245.844C582.639,146.395,533.236,31.582,498.862,-71.725C469.199,-160.874,409.831,-231.223,354.356,-307.051C293.482,-390.258,256.431,-507.416,157.904,-537.771C59.365,-568.13,-33.725,-480.033,-134.37,-457.623C-244.677,-433.062,-386.107,-484.076,-461.466,-399.863C-536.61,-315.891,-485.456,-181.912,-481.88,-69.284C-478.92,23.947,-488.592,121.005,-442.356,202.017C-397.83,280.034,-312.276,319.982,-234.281,364.548C-160.119,406.924,-84.74,444.063,0,454.776" fill="#01040f"></path>
        <path d="M1440 1139.825C1535.701 1157.5529999999999 1636.755 1183.84 1726.027 1145.066 1820.336 1104.104 1888.603 1017.871 1933.616 925.427 1979.308 831.59 1993.4470000000001 725.85 1980.586 622.275 1967.559 517.362 1942.603 402.195 1860.391 335.729 1780.306 270.982 1665.025 288.806 1562.154 283.983 1481.278 280.191 1405.188 295.368 1325.68 310.661 1237.05 327.709 1130.362 312.324 1069.2939999999999 378.782 1008.2139999999999 445.252 1044.641 552.404 1023.0070000000001 640.045 998.123 740.854 888.857 837.552 932.831 931.616 976.919 1025.922 1118.527 1010.8340000000001 1214.831 1050.37 1291.087 1081.676 1358.9470000000001 1124.81 1440 1139.825" fill="#03081f"></path>
    </g>
    <defs>
        <mask id="SvgjsMask1147">
            <rect width="1440" height="700" fill="#ffffff"></rect>
        </mask>
    </defs>
</svg>